<svg width="45" height="30" viewBox="0 0 45 30" fill="none" xmlns="http://www.w3.org/2000/svg">
<path d="M42.7864 26.0425L43.2045 26.4223V25.8574V1.87524V1.62524H42.9545H2.04545H1.79545V1.87524V25.8574V26.411L2.21075 26.045L15.4892 14.343L15.8232 14.677L16.6336 15.4874L2.30083 27.9365L1.79571 28.3752H2.46477H42.5352H43.1686L42.706 27.9426L28.8596 14.9942L29.1729 14.6809L29.7238 14.1759L42.7864 26.0425ZM1.02273 0.250244H43.9773C44.4248 0.250244 44.75 0.577565 44.75 0.937744V29.0627C44.75 29.4229 44.4248 29.7502 43.9773 29.7502H1.02273C0.574309 29.7502 0.25 29.4231 0.25 29.0627V0.937744C0.25 0.577409 0.574309 0.250244 1.02273 0.250244Z" fill="#2EDD02" stroke="black" stroke-width="0.5"/>
<path d="M22.3315 18.9141L22.5004 19.069L22.6694 18.9141L40.9853 2.12451H42.705V2.5211L23.0546 20.534C22.7503 20.8129 22.2506 20.8129 21.9463 20.534L2.2959 2.5211V2.12451H4.01558L22.3315 18.9141Z" fill="#2EDD02" stroke="black" stroke-width="0.5"/>
</svg>
