<?xml version="1.0" encoding="UTF-8"?>
<svg xmlns="http://www.w3.org/2000/svg" xmlns:xlink="http://www.w3.org/1999/xlink" viewBox="0 0 48 48" width="48px" height="48px">
<defs>
<linearGradient id="linear0" gradientUnits="userSpaceOnUse" x1="72.717781" y1="86.175987" x2="139.484192" y2="86.175987" gradientTransform="matrix(0.926668,0,0,0.926668,0,0)">
<stop offset="0" style="stop-color:rgb(99.607843%,87.058824%,0%);stop-opacity:1;"/>
<stop offset="1" style="stop-color:rgb(100%,81.568629%,0%);stop-opacity:1;"/>
</linearGradient>
</defs>
<g id="surface6969054">
<path style=" stroke:none;fill-rule:nonzero;fill:rgb(100%,100%,100%);fill-opacity:1;" d="M 24 48 C 10.746094 48 0 37.253906 0 24 C 0 10.746094 10.746094 0 24 0 C 37.253906 0 48 10.746094 48 24 C 48 37.253906 37.253906 48 24 48 Z M 24 48 "/>
<path style=" stroke:none;fill-rule:nonzero;fill:rgb(100%,100%,100%);fill-opacity:1;" d="M 41.722656 10.101562 L 6.277344 10.101562 C 4.804688 10.101562 3.613281 11.292969 3.613281 12.765625 L 3.613281 35.234375 C 3.613281 36.707031 4.804688 37.898438 6.277344 37.898438 L 41.722656 37.898438 C 43.195312 37.898438 44.386719 36.707031 44.386719 35.234375 L 44.386719 12.765625 C 44.386719 11.292969 43.195312 10.101562 41.722656 10.101562 Z M 41.722656 10.101562 "/>
<path style=" stroke:none;fill-rule:nonzero;fill:rgb(81.176472%,9.803922%,15.686275%);fill-opacity:1;" d="M 26.878906 24.050781 C 26.878906 29.195312 22.707031 33.363281 17.5625 33.363281 C 12.417969 33.363281 8.246094 29.195312 8.246094 24.050781 C 8.246094 18.902344 12.417969 14.734375 17.5625 14.734375 C 22.707031 14.734375 26.878906 18.902344 26.878906 24.050781 Z M 26.878906 24.050781 "/>
<path style=" stroke:none;fill-rule:nonzero;fill:url(#linear0);" d="M 38.925781 24.050781 C 38.925781 29.195312 34.753906 33.363281 29.609375 33.363281 C 24.464844 33.363281 20.292969 29.195312 20.292969 24.050781 C 20.292969 18.902344 24.464844 14.734375 29.609375 14.734375 C 34.753906 14.734375 38.925781 18.902344 38.925781 24.050781 Z M 38.925781 24.050781 "/>
<path style=" stroke:none;fill-rule:nonzero;fill:rgb(85.09804%,44.705883%,9.411765%);fill-opacity:1;" d="M 20.292969 24.050781 C 20.292969 26.894531 21.574219 29.441406 23.585938 31.148438 C 25.597656 29.441406 26.878906 26.894531 26.878906 24.050781 C 26.878906 21.203125 25.597656 18.65625 23.585938 16.949219 C 21.574219 18.65625 20.292969 21.203125 20.292969 24.050781 Z M 20.292969 24.050781 "/>
</g>
</svg>
