<?xml version="1.0" encoding="UTF-8"?>
<svg xmlns="http://www.w3.org/2000/svg" xmlns:xlink="http://www.w3.org/1999/xlink" viewBox="0 0 48 48" width="48px" height="48px">
<g id="surface6899578">
<path style=" stroke:none;fill-rule:nonzero;fill:rgb(100%,100%,100%);fill-opacity:1;" d="M 24 48 C 10.746094 48 0 37.253906 0 24 C 0 10.746094 10.746094 0 24 0 C 37.253906 0 48 10.746094 48 24 C 48 37.253906 37.253906 48 24 48 Z M 24 48 "/>
<path style=" stroke:none;fill-rule:nonzero;fill:rgb(8.235294%,39.607844%,75.294119%);fill-opacity:1;" d="M 43.53125 34.230469 C 43.53125 36.285156 41.863281 37.949219 39.808594 37.949219 L 8.191406 37.949219 C 6.136719 37.949219 4.46875 36.285156 4.46875 34.230469 L 4.46875 13.769531 C 4.46875 11.714844 6.136719 10.050781 8.191406 10.050781 L 39.808594 10.050781 C 41.863281 10.050781 43.53125 11.714844 43.53125 13.769531 Z M 43.53125 34.230469 "/>
<path style=" stroke:none;fill-rule:nonzero;fill:rgb(100%,100%,100%);fill-opacity:1;" d="M 15.804688 19.351562 L 13.359375 26.632812 C 13.359375 26.632812 12.742188 23.550781 12.679688 23.164062 C 11.289062 19.992188 9.238281 20.171875 9.238281 20.171875 L 11.65625 29.578125 L 14.59375 29.578125 L 18.660156 19.351562 Z M 18.128906 29.578125 L 20.800781 29.578125 L 22.414062 19.351562 L 19.710938 19.351562 Z M 37.027344 19.351562 L 34.21875 19.351562 L 29.835938 29.578125 L 32.488281 29.578125 L 33.035156 28.117188 L 36.382812 28.117188 L 36.664062 29.578125 L 39.097656 29.578125 Z M 33.777344 26.164062 L 35.230469 22.300781 L 35.992188 26.164062 Z M 26.203125 22.332031 C 26.203125 21.769531 26.667969 21.347656 27.996094 21.347656 C 28.855469 21.347656 29.847656 21.976562 29.847656 21.976562 L 30.28125 19.828125 C 30.28125 19.828125 29.015625 19.347656 27.777344 19.347656 C 24.96875 19.347656 23.519531 20.691406 23.519531 22.390625 C 23.519531 25.464844 27.222656 25.046875 27.222656 26.625 C 27.222656 26.894531 27.007812 27.519531 25.464844 27.519531 C 23.921875 27.519531 22.898438 26.953125 22.898438 26.953125 L 22.441406 29.015625 C 22.441406 29.015625 23.429688 29.578125 25.339844 29.578125 C 27.253906 29.578125 29.910156 28.148438 29.910156 26.089844 C 29.910156 23.613281 26.203125 23.4375 26.203125 22.332031 Z M 26.203125 22.332031 "/>
<path style=" stroke:none;fill-rule:nonzero;fill:rgb(100%,75.686276%,2.745098%);fill-opacity:1;" d="M 13.039062 24.878906 L 12.140625 20.464844 C 12.140625 20.464844 11.730469 19.507812 10.675781 19.507812 C 9.621094 19.507812 6.546875 19.507812 6.546875 19.507812 C 6.546875 19.507812 11.8125 21.0625 13.039062 24.878906 Z M 13.039062 24.878906 "/>
</g>
</svg>
