<?xml version="1.0" encoding="UTF-8"?>
<svg xmlns="http://www.w3.org/2000/svg" xmlns:xlink="http://www.w3.org/1999/xlink" viewBox="0 0 48 48" width="48px" height="48px">
<g id="surface6893714">
<path style=" stroke:none;fill-rule:nonzero;fill:rgb(100%,100%,100%);fill-opacity:1;" d="M 24 48 C 10.746094 48 0 37.253906 0 24 C 0 10.746094 10.746094 0 24 0 C 37.253906 0 48 10.746094 48 24 C 48 37.253906 37.253906 48 24 48 Z M 24 48 "/>
<path style=" stroke:none;fill-rule:nonzero;fill:rgb(30.980393%,76.47059%,96.862745%);fill-opacity:1;" d="M 45 23.5 C 45 32.058594 35.375 39 23.5 39 C 11.625 39 2 32.058594 2 23.5 C 2 14.941406 11.625 8 23.5 8 C 35.375 8 45 14.941406 45 23.5 Z M 45 23.5 "/>
<path style=" stroke:none;fill-rule:nonzero;fill:rgb(98.039216%,98.039216%,98.039216%);fill-opacity:1;" d="M 22.472656 24.945312 C 20.492188 19.410156 17.585938 14.066406 16.386719 11.949219 C 16.035156 11.332031 15.597656 10.765625 15.097656 10.261719 L 12.542969 7.707031 C 12.152344 7.316406 11.128906 7.707031 11.128906 7.707031 L 9.496094 8.734375 L 9.335938 11.054688 L 8.773438 11 C 8.253906 11 7.835938 11.421875 7.835938 11.9375 C 7.835938 12.457031 8.246094 12.90625 8.769531 12.898438 C 10.675781 12.867188 12.335938 14.5 12.335938 14.5 L 14.335938 14.5 C 14.65625 14.820312 15.472656 15.867188 15.664062 16.9375 C 15.769531 17.550781 15.816406 18.167969 15.78125 18.785156 C 15.457031 24.621094 16.835938 26 16.835938 26 C 11.335938 22.5 2.015625 23.035156 2.015625 23.035156 L 2.210938 26.050781 L 5 31 C 5.917969 31.210938 5.742188 30.375 6.765625 30.496094 C 12.964844 31.238281 20.335938 30.5 20.335938 30.5 C 21.835938 30.5 22.292969 29.707031 23 29 C 24 28 22.847656 26.003906 22.472656 24.945312 Z M 22.472656 24.945312 "/>
<path style=" stroke:none;fill-rule:nonzero;fill:rgb(98.039216%,98.039216%,98.039216%);fill-opacity:1;" d="M 24.914062 24.945312 C 26.890625 19.410156 29.796875 14.066406 30.996094 11.949219 C 31.351562 11.332031 31.785156 10.765625 32.289062 10.261719 L 34.839844 7.707031 C 35.230469 7.316406 36.253906 7.707031 36.253906 7.707031 L 37.8125 9 L 38.050781 11.054688 L 38.609375 11 C 39.128906 11 39.550781 11.421875 39.550781 11.9375 C 39.550781 12.457031 39.136719 12.90625 38.617188 12.898438 C 36.707031 12.867188 35.050781 14.5 35.050781 14.5 L 33.050781 14.5 C 32.730469 14.820312 31.910156 15.867188 31.722656 16.9375 C 31.613281 17.550781 31.566406 18.167969 31.601562 18.785156 C 31.925781 24.621094 30.550781 26 30.550781 26 C 36.050781 22.5 45.550781 23 45.550781 23 L 45.382812 26 L 42.382812 31 C 41.464844 31.210938 41.640625 30.375 40.617188 30.496094 C 34.421875 31.238281 27.050781 30.5 27.050781 30.5 C 25.550781 30.5 25.089844 29.707031 24.382812 29 C 23.382812 28 24.535156 26.003906 24.914062 24.945312 Z M 24.914062 24.945312 "/>
<path style=" stroke:none;fill-rule:nonzero;fill:rgb(10.196079%,13.725491%,49.411765%);fill-opacity:1;" d="M 43.832031 16.324219 C 43.519531 15.910156 43.1875 15.519531 42.839844 15.140625 C 42.78125 15.074219 42.71875 15.015625 42.65625 14.953125 C 42.347656 14.628906 42.027344 14.3125 41.695312 14.015625 C 41.671875 13.992188 41.644531 13.96875 41.617188 13.945312 C 41.03125 13.425781 40.417969 12.933594 39.773438 12.492188 C 39.84375 12.316406 39.882812 12.128906 39.882812 11.9375 C 39.882812 11.144531 39.238281 10.5 38.402344 10.5 C 38.402344 10.5 38.398438 10.5 38.398438 10.5 L 38.382812 10.503906 L 38.382812 9.320312 C 38.382812 8.785156 38.09375 8.289062 37.632812 8.019531 L 36.269531 7.238281 C 36.046875 7.15625 34.914062 6.761719 34.324219 7.351562 L 32.484375 9.191406 C 32.105469 9.085938 31.597656 8.941406 31.273438 8.863281 C 28.894531 8.289062 26.445312 8.015625 24 8 C 20.96875 7.996094 17.90625 8.390625 14.980469 9.273438 L 13.0625 7.355469 C 12.472656 6.765625 11.335938 7.15625 11.042969 7.273438 L 9.75 8.019531 C 9.289062 8.289062 9 8.785156 9 9.320312 L 9 10.507812 L 8.9375 10.5 C 8.144531 10.5 7.5 11.144531 7.5 11.9375 C 7.5 12.25 7.601562 12.550781 7.78125 12.804688 C 6.804688 13.519531 5.878906 14.316406 5.0625 15.226562 C 4.746094 15.574219 4.445312 15.941406 4.160156 16.320312 C 2.636719 18.347656 2.0625 20.871094 2 23.5 C 1.964844 26.128906 2.453125 28.722656 3.933594 30.84375 C 5.410156 32.976562 7.382812 34.695312 9.554688 36.007812 C 13.933594 38.613281 18.992188 39.753906 24 39.851562 C 26.511719 39.824219 29.023438 39.53125 31.472656 38.929688 C 33.914062 38.304688 36.28125 37.347656 38.457031 36.027344 C 40.621094 34.699219 42.601562 32.988281 44.074219 30.847656 C 45.550781 28.726562 46.007812 26.128906 45.96875 23.5 C 45.90625 20.871094 45.355469 18.347656 43.832031 16.324219 Z M 40.792969 15.140625 C 41.023438 15.363281 41.242188 15.597656 41.453125 15.835938 C 41.550781 15.941406 41.648438 16.046875 41.742188 16.15625 C 42.035156 16.503906 42.316406 16.859375 42.570312 17.230469 C 43.660156 18.8125 44.355469 20.621094 44.527344 22.472656 C 42.253906 22.441406 36.085938 22.589844 31.484375 24.816406 C 31.820312 23.683594 32.105469 21.800781 31.933594 18.757812 C 31.90625 18.207031 31.941406 17.621094 32.046875 17.023438 C 32.1875 16.234375 32.75 15.40625 33.101562 15 L 33.828125 15 C 34.558594 15 35.261719 14.773438 35.855469 14.351562 C 36.476562 13.90625 37.414062 13.371094 38.441406 13.398438 C 38.515625 13.398438 38.582031 13.367188 38.652344 13.359375 C 38.917969 13.550781 39.1875 13.742188 39.445312 13.945312 C 39.519531 14.007812 39.59375 14.070312 39.667969 14.132812 C 39.941406 14.355469 40.207031 14.589844 40.464844 14.828125 C 40.574219 14.929688 40.6875 15.035156 40.792969 15.140625 Z M 24 9 C 26.367188 9.027344 28.734375 9.304688 31.027344 9.871094 C 31.234375 9.921875 31.4375 9.988281 31.644531 10.050781 C 31.160156 10.554688 30.738281 11.105469 30.398438 11.703125 C 29.222656 13.769531 26.273438 19.1875 24.277344 24.777344 C 24.203125 24.984375 24.113281 25.207031 24.023438 25.4375 C 23.910156 25.71875 23.796875 26.011719 23.691406 26.304688 C 23.585938 26.011719 23.472656 25.71875 23.359375 25.4375 C 23.269531 25.207031 23.179688 24.984375 23.105469 24.777344 C 21.105469 19.179688 18.15625 13.769531 16.984375 11.703125 C 16.6875 11.179688 16.316406 10.699219 15.910156 10.246094 C 18.523438 9.460938 21.265625 9.054688 24 9 Z M 5.433594 17.238281 C 5.6875 16.875 5.960938 16.523438 6.246094 16.1875 C 6.339844 16.074219 6.441406 15.96875 6.539062 15.859375 C 6.742188 15.632812 6.949219 15.410156 7.164062 15.195312 C 7.28125 15.082031 7.398438 14.972656 7.515625 14.863281 C 7.746094 14.648438 7.980469 14.441406 8.21875 14.238281 C 8.320312 14.15625 8.417969 14.074219 8.519531 13.992188 C 8.761719 13.800781 9.015625 13.617188 9.265625 13.433594 C 10.152344 13.523438 10.972656 13.957031 11.527344 14.351562 C 12.121094 14.777344 12.824219 15 13.554688 15 L 14.28125 15 C 14.632812 15.40625 15.195312 16.234375 15.335938 17.027344 C 15.441406 17.621094 15.480469 18.207031 15.449219 18.757812 C 15.277344 21.800781 15.5625 23.6875 15.898438 24.816406 C 11.703125 22.789062 6.164062 22.484375 3.472656 22.472656 C 3.648438 20.621094 4.347656 18.8125 5.433594 17.238281 Z M 6.234375 30.269531 C 6.042969 30.046875 5.839844 29.835938 5.664062 29.597656 C 4.328125 27.824219 3.488281 25.703125 3.425781 23.5 C 3.425781 23.492188 3.425781 23.484375 3.425781 23.476562 C 6.304688 23.480469 12.652344 23.824219 16.730469 26.421875 C 16.941406 26.554688 17.214844 26.511719 17.378906 26.316406 C 17.539062 26.128906 17.53125 25.839844 17.363281 25.65625 C 17.351562 25.640625 16.144531 24.234375 16.449219 18.8125 C 16.484375 18.183594 16.441406 17.523438 16.320312 16.851562 C 16.105469 15.617188 15.1875 14.480469 14.855469 14.144531 C 14.761719 14.054688 14.632812 14 14.5 14 L 13.554688 14 C 13.03125 14 12.535156 13.839844 12.109375 13.539062 C 11.363281 13.007812 10.183594 12.390625 8.925781 12.398438 C 8.792969 12.402344 8.699219 12.335938 8.644531 12.28125 C 8.550781 12.191406 8.5 12.066406 8.5 11.9375 C 8.5 11.695312 8.695312 11.5 8.890625 11.496094 L 9.453125 11.550781 C 9.5625 11.558594 9.667969 11.523438 9.761719 11.46875 L 10.148438 11.855469 C 10.242188 11.949219 10.371094 12 10.5 12 C 10.554688 12 10.605469 11.992188 10.65625 11.976562 L 11.863281 11.574219 L 13.144531 12.855469 C 13.242188 12.949219 13.371094 13 13.5 13 C 13.628906 13 13.757812 12.949219 13.855469 12.855469 C 14.050781 12.660156 14.050781 12.34375 13.855469 12.148438 L 12.707031 11 L 12.851562 10.855469 C 12.949219 10.757812 13 10.628906 13 10.5 C 13 10.371094 12.949219 10.242188 12.855469 10.144531 L 11.855469 9.144531 C 11.660156 8.949219 11.34375 8.949219 11.148438 9.144531 C 11.050781 9.242188 11 9.371094 11 9.5 C 11 9.628906 11.050781 9.757812 11.144531 9.855469 L 11.792969 10.5 L 11.730469 10.5625 L 10.632812 10.929688 L 10 10.292969 L 10 9.320312 C 10 9.140625 10.097656 8.976562 10.25 8.886719 L 11.46875 8.175781 C 11.835938 8.035156 12.261719 7.996094 12.351562 8.058594 L 14.90625 10.613281 C 15.382812 11.089844 15.789062 11.621094 16.117188 12.195312 C 17.277344 14.238281 20.191406 19.589844 22.164062 25.113281 C 22.242188 25.332031 22.335938 25.566406 22.433594 25.808594 C 22.777344 26.679688 23.171875 27.664062 23.011719 28.390625 C 22.808594 29.308594 21.726562 30 20.488281 30 C 20.421875 30.003906 13.367188 30.140625 7.066406 30.011719 C 6.796875 30.003906 6.507812 30.113281 6.234375 30.269531 Z M 37.21875 33.917969 C 35.238281 35.035156 33.0625 35.816406 30.832031 36.335938 C 28.605469 36.875 26.304688 37.136719 24 37.148438 C 19.40625 37.160156 14.742188 36.199219 10.769531 33.941406 C 9.367188 33.140625 8.0625 32.175781 6.9375 31.050781 C 6.972656 31.035156 7.019531 31.011719 7.046875 31.011719 C 13.367188 31.136719 20.4375 31 20.5 31 C 21.894531 31 23.117188 30.328125 23.691406 29.328125 C 24.265625 30.328125 25.484375 31 26.875 31 C 26.945312 31.003906 34.019531 31.140625 40.335938 31.011719 C 40.425781 31.015625 40.609375 31.113281 40.820312 31.261719 C 39.746094 32.289062 38.53125 33.183594 37.21875 33.917969 Z M 42.328125 29.59375 C 42.082031 29.921875 41.804688 30.226562 41.527344 30.535156 C 41.15625 30.261719 40.714844 30.011719 40.335938 30.011719 C 40.328125 30.011719 40.324219 30.011719 40.316406 30.011719 C 34.015625 30.136719 26.964844 30 26.882812 30 C 25.65625 30 24.574219 29.308594 24.371094 28.390625 C 24.210938 27.664062 24.601562 26.679688 24.949219 25.808594 C 25.046875 25.566406 25.140625 25.332031 25.21875 25.113281 C 27.1875 19.597656 30.105469 14.242188 31.265625 12.195312 C 31.59375 11.621094 32 11.089844 32.476562 10.613281 L 35.027344 8.0625 C 35.121094 8 35.546875 8.035156 35.839844 8.140625 L 37.132812 8.886719 C 37.289062 8.976562 37.382812 9.144531 37.382812 9.320312 L 37.382812 10.292969 L 36.75 10.929688 L 35.652344 10.5625 L 35.589844 10.5 L 36.238281 9.855469 C 36.335938 9.757812 36.382812 9.628906 36.382812 9.5 C 36.382812 9.371094 36.335938 9.242188 36.238281 9.144531 C 36.042969 8.949219 35.726562 8.949219 35.53125 9.144531 L 34.53125 10.144531 C 34.433594 10.242188 34.382812 10.371094 34.382812 10.5 C 34.382812 10.628906 34.433594 10.757812 34.53125 10.855469 L 34.675781 11 L 33.53125 12.144531 C 33.335938 12.339844 33.335938 12.65625 33.53125 12.851562 C 33.628906 12.949219 33.757812 13 33.882812 13 C 34.011719 13 34.140625 12.949219 34.238281 12.855469 L 35.519531 11.574219 L 36.726562 11.976562 C 36.777344 11.992188 36.832031 12 36.882812 12 C 37.015625 12 37.140625 11.949219 37.238281 11.855469 L 37.625 11.46875 C 37.714844 11.523438 37.820312 11.558594 37.933594 11.550781 L 38.445312 11.5 C 38.6875 11.5 38.886719 11.695312 38.886719 11.9375 C 38.886719 12.066406 38.832031 12.191406 38.742188 12.28125 C 38.6875 12.335938 38.585938 12.390625 38.460938 12.398438 C 37.179688 12.410156 36.019531 13.007812 35.273438 13.539062 C 34.851562 13.839844 34.351562 14 33.828125 14 L 32.882812 14 C 32.75 14 32.625 14.054688 32.53125 14.144531 C 32.195312 14.480469 31.28125 15.617188 31.0625 16.851562 C 30.945312 17.527344 30.902344 18.1875 30.9375 18.816406 C 31.238281 24.234375 30.03125 25.640625 30.03125 25.644531 C 29.851562 25.828125 29.835938 26.113281 29.992188 26.3125 C 30.152344 26.511719 30.433594 26.558594 30.652344 26.421875 C 35.058594 23.617188 42.226562 23.453125 44.574219 23.480469 C 44.574219 23.484375 44.574219 23.492188 44.574219 23.5 C 44.507812 25.703125 43.664062 27.824219 42.328125 29.59375 Z M 42.328125 29.59375 "/>
</g>
</svg>
