<svg width="30" height="30" viewBox="0 0 30 30" fill="none" xmlns="http://www.w3.org/2000/svg">
<path d="M3.75 3.04789H3.25V3.54789V19.7132V20.2132H3.75H26.25H26.75V19.7132V3.54789V3.04789H26.25H15H3.75ZM10.75 26.0915V29.5002H7.25V26.0915H10.75ZM16.75 26.0915V29.5002H13.25V26.0915H16.75ZM22.75 26.0915V29.5002H19.25V26.0915H22.75ZM15.25 16.2741H11.75V12.8653H15.25V16.2741ZM24.25 16.2741H17.75V12.8653H24.25V16.2741ZM27 23.0134H3C2.33369 23.0134 1.69668 22.754 1.22859 22.2954C0.760849 21.8372 0.5 21.2179 0.5 20.5743V2.93939C0.5 2.29584 0.760849 1.67651 1.22859 1.21826C1.69668 0.759662 2.33369 0.500244 3 0.500244H27C27.6663 0.500244 28.3033 0.759662 28.7714 1.21826C29.2391 1.67651 29.5 2.29584 29.5 2.93939V20.5743C29.5 21.2179 29.2391 21.8372 28.7714 22.2954C28.3033 22.754 27.6663 23.0134 27 23.0134ZM9.25 10.3958H5.75V6.98704H9.25V8.6914V10.3958ZM24.25 10.3958H11.75V6.98704H24.25V10.3958Z" fill="#2EDD02" stroke="black"/>
</svg>
