<svg width="32" height="32" viewBox="0 0 32 32" fill="none" xmlns="http://www.w3.org/2000/svg">
<path d="M4.33333 4.33358V17.6669H11V4.33358H4.33333ZM14.3333 12.4994V17.6669H19.5008L14.3333 12.4994ZM14.3333 6.97655L19.8215 1.4884C20.4724 0.837526 21.5276 0.837526 22.1785 1.4884L29.2496 8.55947C29.9005 9.21034 29.9005 10.2656 29.2496 10.9165L22.4992 17.6669H27.6667C29.5076 17.6669 31 19.1593 31 21.0002V27.6669C31 29.5079 29.5076 31.0002 27.6667 31.0002H4.33333C2.49238 31.0002 1 29.5079 1 27.6669V21.0002C1 20.3931 1.16232 19.8239 1.44594 19.3336C1.16232 18.8433 1 18.2741 1 17.6669V4.33358C1 2.49263 2.49238 1.00024 4.33333 1.00024H11C12.8409 1.00024 14.3333 2.49263 14.3333 4.33358V6.97655ZM4.33333 21.0002V27.6669H27.6667V21.0002H4.33333ZM16.286 9.73798L21 14.452L25.714 9.73798L21 5.02393L16.286 9.73798Z" fill="#2EDD02" stroke="black"/>
</svg>
