<?xml version="1.0" encoding="UTF-8"?>
<svg xmlns="http://www.w3.org/2000/svg" xmlns:xlink="http://www.w3.org/1999/xlink" viewBox="0 0 64 64" width="64px" height="64px">
<g id="surface6916588">
<path style=" stroke:none;fill-rule:nonzero;fill:rgb(90.588236%,29.803923%,23.529412%);fill-opacity:1;" d="M 32 64 C 14.328125 64 0 49.671875 0 32 C 0 14.328125 14.328125 0 32 0 C 49.671875 0 64 14.328125 64 32 C 64 49.671875 49.671875 64 32 64 Z M 32 64 "/>
<path style=" stroke:none;fill-rule:nonzero;fill:rgb(100%,100%,100%);fill-opacity:1;" d="M 42.753906 28.769531 C 42.800781 27.242188 42.464844 25.753906 41.707031 24.441406 L 31.921875 7.492188 C 29.953125 10.542969 29.722656 14.09375 31.300781 16.875 L 38.078125 28.617188 C 39.878906 31.730469 39.859375 35.59375 38.027344 38.800781 L 31.460938 27.429688 C 31.457031 27.429688 31.453125 27.429688 31.449219 27.429688 L 25.972656 17.945312 C 24.195312 21.0625 24.140625 24.789062 25.785156 27.855469 C 25.777344 27.855469 25.765625 27.855469 25.757812 27.859375 L 32.113281 38.867188 C 33.855469 41.882812 33.785156 45.65625 31.925781 48.816406 L 21.332031 30.46875 C 21.046875 29.980469 20.832031 29.464844 20.644531 28.9375 C 13.378906 31.015625 8.453125 35.015625 8.453125 39.617188 C 8.453125 46.351562 18.996094 51.808594 32 51.808594 C 45.003906 51.808594 55.546875 46.351562 55.546875 39.617188 C 55.546875 34.886719 50.347656 30.792969 42.753906 28.769531 Z M 42.753906 28.769531 "/>
<path style=" stroke:none;fill-rule:nonzero;fill:rgb(100%,100%,100%);fill-opacity:1;" d="M 55.289062 39.851562 C 55.683594 35.128906 51.753906 37.683594 51.351562 39.453125 C 50.707031 42.285156 46.296875 45.085938 43.558594 46.039062 C 40.230469 47.195312 34.644531 47.082031 34.644531 51.660156 C 37.703125 51.746094 41.734375 51.101562 44.683594 49.980469 C 49.835938 48.027344 54.625 44.292969 55.289062 39.851562 Z M 55.289062 39.851562 "/>
<path style=" stroke:none;fill-rule:nonzero;fill:rgb(90.588236%,29.803923%,23.529412%);fill-opacity:1;" d="M 32 52.648438 C 18.324219 52.648438 7.613281 46.925781 7.613281 39.617188 C 7.613281 34.789062 12.515625 30.386719 20.410156 28.128906 C 20.839844 28.015625 21.285156 28.238281 21.433594 28.65625 C 21.632812 29.210938 21.832031 29.65625 22.058594 30.046875 L 31.863281 47.027344 C 32.875 44.460938 32.722656 41.601562 31.382812 39.285156 L 25.027344 28.28125 C 24.984375 28.203125 24.953125 28.125 24.9375 28.042969 C 23.253906 24.738281 23.363281 20.828125 25.242188 17.53125 C 25.394531 17.265625 25.667969 17.109375 25.972656 17.105469 C 26.273438 17.105469 26.550781 17.265625 26.703125 17.527344 L 32.113281 26.898438 C 32.140625 26.933594 32.167969 26.96875 32.191406 27.007812 L 37.953125 36.988281 C 38.933594 34.371094 38.738281 31.4375 37.351562 29.039062 L 30.574219 17.296875 C 28.847656 14.253906 29.097656 10.328125 31.214844 7.039062 C 31.375 6.792969 31.660156 6.660156 31.941406 6.652344 C 32.234375 6.660156 32.503906 6.820312 32.652344 7.074219 L 42.4375 24.023438 C 43.140625 25.242188 43.535156 26.652344 43.59375 28.128906 C 51.503906 30.386719 56.386719 34.753906 56.386719 39.617188 C 56.386719 46.925781 45.675781 52.648438 32 52.648438 Z M 20.140625 29.964844 C 13.429688 32.050781 9.292969 35.710938 9.292969 39.617188 C 9.292969 45.875 19.480469 50.96875 32 50.96875 C 44.519531 50.96875 54.707031 45.875 54.707031 39.617188 C 54.707031 35.488281 49.929688 31.550781 42.539062 29.582031 C 42.160156 29.480469 41.902344 29.132812 41.914062 28.742188 C 41.957031 27.335938 41.632812 25.996094 40.980469 24.863281 L 31.9375 9.199219 C 30.792969 11.667969 30.808594 14.304688 32.03125 16.460938 L 38.808594 28.195312 C 40.742188 31.546875 40.722656 35.769531 38.757812 39.21875 C 38.609375 39.480469 38.332031 39.640625 38.03125 39.644531 C 38.027344 39.644531 38.027344 39.644531 38.027344 39.644531 C 37.726562 39.644531 37.449219 39.484375 37.296875 39.222656 L 30.796875 27.960938 C 30.769531 27.925781 30.742188 27.886719 30.71875 27.847656 L 26.046875 19.753906 C 25.089844 22.285156 25.246094 25.070312 26.527344 27.457031 C 26.554688 27.511719 26.582031 27.574219 26.597656 27.632812 L 32.839844 38.445312 C 34.722656 41.707031 34.648438 45.84375 32.648438 49.242188 C 32.496094 49.5 32.222656 49.65625 31.921875 49.65625 C 31.621094 49.65625 31.34375 49.496094 31.195312 49.238281 L 20.601562 30.890625 C 20.4375 30.601562 20.285156 30.300781 20.140625 29.964844 Z M 20.140625 29.964844 "/>
<path style=" stroke:none;fill-rule:nonzero;fill:rgb(90.588236%,29.803923%,23.529412%);fill-opacity:1;" d="M 10.136719 24.058594 C 9.671875 24.058594 9.292969 23.683594 9.292969 23.21875 L 9.292969 21.535156 C 9.292969 21.070312 9.671875 20.695312 10.136719 20.695312 C 10.601562 20.695312 10.976562 21.070312 10.976562 21.535156 L 10.976562 23.21875 C 10.976562 23.683594 10.601562 24.058594 10.136719 24.058594 Z M 10.136719 24.058594 "/>
<path style=" stroke:none;fill-rule:nonzero;fill:rgb(90.588236%,29.803923%,23.529412%);fill-opacity:1;" d="M 14.339844 24.058594 C 13.875 24.058594 13.5 23.683594 13.5 23.21875 L 13.5 21.535156 C 13.5 21.070312 13.875 20.695312 14.339844 20.695312 C 14.804688 20.695312 15.179688 21.070312 15.179688 21.535156 L 15.179688 23.21875 C 15.179688 23.683594 14.804688 24.058594 14.339844 24.058594 Z M 14.339844 24.058594 "/>
<path style=" stroke:none;fill-rule:nonzero;fill:rgb(90.588236%,29.803923%,23.529412%);fill-opacity:1;" d="M 18.546875 24.058594 C 18.082031 24.058594 17.703125 23.683594 17.703125 23.21875 L 17.703125 21.535156 C 17.703125 21.070312 18.082031 20.695312 18.546875 20.695312 C 19.007812 20.695312 19.386719 21.070312 19.386719 21.535156 L 19.386719 23.21875 C 19.386719 23.683594 19.007812 24.058594 18.546875 24.058594 Z M 18.546875 24.058594 "/>
<path style=" stroke:none;fill-rule:nonzero;fill:rgb(90.588236%,29.803923%,23.529412%);fill-opacity:1;" d="M 46.296875 24.058594 C 45.832031 24.058594 45.453125 23.683594 45.453125 23.21875 L 45.453125 21.535156 C 45.453125 21.070312 45.832031 20.695312 46.296875 20.695312 C 46.761719 20.695312 47.136719 21.070312 47.136719 21.535156 L 47.136719 23.21875 C 47.136719 23.683594 46.761719 24.058594 46.296875 24.058594 Z M 46.296875 24.058594 "/>
<path style=" stroke:none;fill-rule:nonzero;fill:rgb(90.588236%,29.803923%,23.529412%);fill-opacity:1;" d="M 50.5 24.058594 C 50.035156 24.058594 49.660156 23.683594 49.660156 23.21875 L 49.660156 21.535156 C 49.660156 21.070312 50.035156 20.695312 50.5 20.695312 C 50.964844 20.695312 51.339844 21.070312 51.339844 21.535156 L 51.339844 23.21875 C 51.339844 23.683594 50.964844 24.058594 50.5 24.058594 Z M 50.5 24.058594 "/>
<path style=" stroke:none;fill-rule:nonzero;fill:rgb(90.588236%,29.803923%,23.529412%);fill-opacity:1;" d="M 54.707031 24.058594 C 54.242188 24.058594 53.863281 23.683594 53.863281 23.21875 L 53.863281 21.535156 C 53.863281 21.070312 54.242188 20.695312 54.707031 20.695312 C 55.167969 20.695312 55.546875 21.070312 55.546875 21.535156 L 55.546875 23.21875 C 55.546875 23.683594 55.167969 24.058594 54.707031 24.058594 Z M 54.707031 24.058594 "/>
<path style=" stroke:none;fill-rule:nonzero;fill:rgb(90.588236%,29.803923%,23.529412%);fill-opacity:1;" d="M 36.988281 48.164062 C 36.566406 48.164062 36.203125 47.847656 36.152344 47.421875 C 36.101562 46.957031 36.429688 46.542969 36.890625 46.488281 C 37.726562 46.390625 38.546875 46.265625 39.332031 46.125 C 39.796875 46.039062 40.230469 46.34375 40.3125 46.800781 C 40.394531 47.257812 40.09375 47.695312 39.636719 47.777344 C 38.816406 47.929688 37.957031 48.054688 37.085938 48.15625 C 37.054688 48.160156 37.019531 48.164062 36.988281 48.164062 Z M 43.5625 46.777344 C 43.207031 46.777344 42.878906 46.550781 42.765625 46.195312 C 42.621094 45.753906 42.863281 45.28125 43.304688 45.136719 C 47.8125 43.671875 50.5 41.453125 50.5 39.195312 C 50.5 38.410156 50.175781 37.625 49.535156 36.859375 C 49.238281 36.503906 49.285156 35.972656 49.640625 35.675781 C 49.996094 35.375 50.527344 35.425781 50.824219 35.78125 C 51.726562 36.855469 52.183594 38.003906 52.183594 39.195312 C 52.183594 42.261719 49.136719 45.011719 43.824219 46.738281 C 43.738281 46.765625 43.648438 46.777344 43.5625 46.777344 Z M 43.5625 46.777344 "/>
</g>
</svg>
