<svg width="190" height="181" viewBox="0 0 190 181" fill="none" xmlns="http://www.w3.org/2000/svg">
<path fill-rule="evenodd" clip-rule="evenodd" d="M147.778 180.5C136.118 180.5 126.667 171.546 126.667 160.5V120.5C126.667 109.454 136.118 100.5 147.778 100.5H168.889V90.5C168.889 51.8401 135.808 20.5 95 20.5C54.1923 20.5 21.1111 51.8401 21.1111 90.5V100.5H42.2222C53.8816 100.5 63.3333 109.454 63.3333 120.5V160.5C63.3333 171.546 53.8816 180.5 42.2222 180.5H0V90.5C0 40.7944 42.533 0.5 95 0.5C147.467 0.5 190 40.7944 190 90.5V180.5H147.778ZM168.889 120.5H147.778V160.5H168.889V120.5ZM42.2222 120.5H21.1111V160.5H42.2222V120.5Z" fill="black"/>
</svg>
