<svg width="330" height="171" viewBox="0 0 330 171" fill="none" xmlns="http://www.w3.org/2000/svg">
<path d="M75 50.5C80.5 50.5 85 55 85 60.5V75.5H100C105.5 75.5 110 80 110 85.5C110 91 105.5 95.5 100 95.5H85V110.5C85 116 80.5 120.5 75 120.5C69.5 120.5 65 116 65 110.5V95.5H50C44.5 95.5 40 91 40 85.5C40 80 44.5 75.5 50 75.5H65V60.5C65 55 69.5 50.5 75 50.5ZM75 45.5C66.73 45.5 60 52.23 60 60.5V70.5H50C41.73 70.5 35 77.23 35 85.5C35 93.77 41.73 100.5 50 100.5H60V110.5C60 118.77 66.73 125.5 75 125.5C83.27 125.5 90 118.77 90 110.5V100.5H100C108.27 100.5 115 93.77 115 85.5C115 77.23 108.27 70.5 100 70.5H90V60.5C90 52.23 83.27 45.5 75 45.5Z" fill="black"/>
<path d="M250 95.5C241.715 95.5 235 102.21 235 110.5C235 118.79 241.715 125.5 250 125.5C258.285 125.5 265 118.79 265 110.5C265 102.21 258.285 95.5 250 95.5ZM250 120.5C244.48 120.5 240 116.02 240 110.5C240 104.98 244.48 100.5 250 100.5C255.52 100.5 260 104.98 260 110.5C260 116.02 255.52 120.5 250 120.5Z" fill="black"/>
<path d="M250 45.5C241.715 45.5 235 52.21 235 60.5C235 68.79 241.715 75.5 250 75.5C258.285 75.5 265 68.79 265 60.5C265 52.21 258.285 45.5 250 45.5ZM250 70.5C244.48 70.5 240 66.02 240 60.5C240 54.98 244.48 50.5 250 50.5C255.52 50.5 260 54.98 260 60.5C260 66.02 255.52 70.5 250 70.5Z" fill="black"/>
<path d="M220 69.5C211.715 69.5 205 76.21 205 84.5C205 92.79 211.715 99.5 220 99.5C228.285 99.5 235 92.79 235 84.5C235 76.21 228.285 69.5 220 69.5ZM220 94.5C214.48 94.5 210 90.02 210 84.5C210 78.98 214.48 74.5 220 74.5C225.52 74.5 230 78.98 230 84.5C230 90.02 225.52 94.5 220 94.5Z" fill="black"/>
<path d="M280 69.5C271.715 69.5 265 76.21 265 84.5C265 92.79 271.715 99.5 280 99.5C288.285 99.5 295 92.79 295 84.5C295 76.21 288.285 69.5 280 69.5ZM280 94.5C274.48 94.5 270 90.02 270 84.5C270 78.98 274.48 74.5 280 74.5C285.52 74.5 290 78.98 290 84.5C290 90.02 285.52 94.5 280 94.5Z" fill="black"/>
<path d="M250.333 165.5C228.147 165.5 207.48 155.123 193.219 136.929H136.781C122.52 155.123 101.853 165.5 79.6667 165.5C38.4933 165.5 5 129.614 5 85.5C5 41.3857 38.4933 5.5 79.6667 5.5H250.333C291.507 5.5 325 41.3857 325 85.5C325 129.614 291.507 165.5 250.333 165.5ZM131.64 125.5H198.36L199.96 127.689C212.216 144.454 230.573 154.071 250.333 154.071C285.624 154.071 314.333 123.311 314.333 85.5C314.333 47.6886 285.624 16.9286 250.333 16.9286H79.6667C44.376 16.9286 15.6667 47.6886 15.6667 85.5C15.6667 123.311 44.376 154.071 79.6667 154.071C99.4267 154.071 117.784 144.454 130.04 127.689L131.64 125.5Z" fill="black" stroke="black" stroke-width="10"/>
<path d="M165 37.5V53.5H193V37.5H165ZM187.4 48.1667H170.6V42.8333H187.4V48.1667Z" fill="black"/>
<path d="M125 37.5V53.5H153V37.5H125ZM147.4 48.1667H130.6V42.8333H147.4V48.1667Z" fill="black"/>
</svg>
