<svg width="235" height="191" viewBox="0 0 235 191" fill="none" xmlns="http://www.w3.org/2000/svg">
<path d="M219.616 5.5H15.3796C9.65913 5.5 5 10.1455 5 15.8599V141.858C5 147.572 9.65507 152.231 15.3796 152.231H92.772V175.865H70.0552V185.5H164.941V175.865H142.223V152.227H219.616C225.341 152.227 230 147.572 230 141.853V15.8599C230 10.1455 225.345 5.5 219.616 5.5ZM221.299 141.854C221.299 142.788 220.542 143.543 219.616 143.543H15.3796C14.453 143.543 13.7002 142.788 13.7002 141.854V15.8599C13.7002 14.935 14.453 14.1837 15.3796 14.1837H219.616C220.542 14.1837 221.299 14.935 221.299 15.8599V141.854Z" fill="black" stroke="black" stroke-width="10"/>
</svg>
