<svg width="120" height="181" viewBox="0 0 120 181" fill="none" xmlns="http://www.w3.org/2000/svg">
<path d="M60 38C55.8578 38 52.5 41.3579 52.5 45.5V75.5C52.5 79.6423 55.8578 83 60 83C64.1423 83 67.5 79.6423 67.5 75.5V45.5C67.5 41.3579 64.1423 38 60 38Z" fill="black"/>
<path fill-rule="evenodd" clip-rule="evenodd" d="M0 60.5C0 27.3629 26.8629 0.5 60 0.5C93.1373 0.5 120 27.3629 120 60.5V120.5C120 153.637 93.1373 180.5 60 180.5C26.8629 180.5 0 153.637 0 120.5V60.5ZM105 60.5V120.5C105 145.353 84.8528 165.5 60 165.5C35.1472 165.5 15 145.353 15 120.5V60.5C15 35.6472 35.1472 15.5 60 15.5C84.8528 15.5 105 35.6472 105 60.5Z" fill="black"/>
</svg>
