<svg width="188" height="136" viewBox="0 0 188 136" fill="none" xmlns="http://www.w3.org/2000/svg">
<path d="M52.0837 45.5C57.8366 45.5 62.5003 42.1421 62.5003 38C62.5003 33.8579 57.8366 30.5 52.0837 30.5C46.3307 30.5 41.667 33.8579 41.667 38C41.667 42.1421 46.3307 45.5 52.0837 45.5Z" fill="black"/>
<path d="M62.4997 90.5C56.7468 90.5 52.083 93.8578 52.083 98C52.083 102.142 56.7468 105.5 62.4997 105.5H125C130.753 105.5 135.416 102.142 135.416 98C135.416 93.8578 130.753 90.5 125 90.5H62.4997Z" fill="black"/>
<path d="M62.5003 68C62.5003 72.1423 57.8366 75.5 52.0837 75.5C46.3307 75.5 41.667 72.1423 41.667 68C41.667 63.8578 46.3307 60.5 52.0837 60.5C57.8366 60.5 62.5003 63.8578 62.5003 68Z" fill="black"/>
<path d="M93.7497 45.5C99.5028 45.5 104.166 42.1421 104.166 38C104.166 33.8579 99.5028 30.5 93.7497 30.5C87.9966 30.5 83.333 33.8579 83.333 38C83.333 42.1421 87.9966 45.5 93.7497 45.5Z" fill="black"/>
<path d="M104.166 68C104.166 72.1423 99.5028 75.5 93.7497 75.5C87.9966 75.5 83.333 72.1423 83.333 68C83.333 63.8578 87.9966 60.5 93.7497 60.5C99.5028 60.5 104.166 63.8578 104.166 68Z" fill="black"/>
<path d="M135.417 45.5C141.17 45.5 145.833 42.1421 145.833 38C145.833 33.8579 141.17 30.5 135.417 30.5C129.664 30.5 125 33.8579 125 38C125 42.1421 129.664 45.5 135.417 45.5Z" fill="black"/>
<path d="M145.833 68C145.833 72.1423 141.17 75.5 135.417 75.5C129.664 75.5 125 72.1423 125 68C125 63.8578 129.664 60.5 135.417 60.5C141.17 60.5 145.833 63.8578 145.833 68Z" fill="black"/>
<path fill-rule="evenodd" clip-rule="evenodd" d="M0 23C0 10.5736 13.9911 0.5 31.25 0.5H156.25C173.509 0.5 187.5 10.5736 187.5 23V113C187.5 125.427 173.509 135.5 156.25 135.5H31.25C13.9911 135.5 0 125.427 0 113V23ZM31.25 15.5H156.25C162.003 15.5 166.667 18.8579 166.667 23V113C166.667 117.142 162.003 120.5 156.25 120.5H31.25C25.4971 120.5 20.8333 117.142 20.8333 113V23C20.8333 18.8579 25.4971 15.5 31.25 15.5Z" fill="black"/>
</svg>
