<svg width="70" height="60" viewBox="0 0 70 60" fill="none" xmlns="http://www.w3.org/2000/svg">
<path d="M2.25807 31.9358C3.50516 31.9358 4.51613 30.9146 4.51613 29.6548V16.8806V13.9152C12.6452 15.7401 18.0645 24.8644 18.0645 34.2169V57.9155C18.0645 59.1754 19.0755 60.0005 20.3226 60.0005C21.5697 60.0005 22.3548 59.1754 22.3548 57.9155L22.5807 4.56268L67.9677 4.33457C69.2148 4.33457 70 3.31329 70 2.05347C70 0.79366 68.989 0.000488281 67.7419 0.000488281H2.25807C1.01097 0.000488281 0 1.02177 0 2.28158C0 3.5414 1.01097 4.56268 2.25807 4.56268H18.0645V19.0191C15.129 14.1433 9.70968 9.12487 2.07526e-06 9.12487L0 11.406V29.6548C0 30.9146 1.01097 31.9358 2.25807 31.9358Z" fill="#2EDD02"/>
</svg>
